<?xml version="1.0" standalone="no"?>
<!DOCTYPE svg PUBLIC "-//W3C//DTD SVG 20010904//EN"
 "http://www.w3.org/TR/2001/REC-SVG-20010904/DTD/svg10.dtd">
<svg version="1.0" xmlns="http://www.w3.org/2000/svg"
 width="1072.000000pt" height="1072.000000pt" viewBox="0 0 1072.000000 1072.000000"
 preserveAspectRatio="xMidYMid meet">

<g transform="translate(0.000000,1072.000000) scale(0.100000,-0.100000)"
fill="#000000" stroke="none">
<path d="M5147 6626 c-54 -23 -103 -48 -109 -54 -7 -7 -18 -12 -25 -12 -7 0
-23 -5 -36 -12 -45 -23 -55 -27 -91 -33 -20 -4 -38 -11 -41 -15 -3 -5 -31 -16
-63 -25 -31 -9 -70 -21 -86 -26 -16 -5 -37 -9 -47 -9 -20 0 -98 -50 -99 -63 0
-5 -15 -24 -34 -44 -37 -40 -54 -44 -244 -63 -68 -7 -132 -19 -160 -31 -98
-42 -118 -51 -143 -65 -181 -96 -182 -96 -369 -88 -192 8 -275 -3 -485 -65
-39 -12 -77 -21 -85 -21 -7 0 -27 -4 -44 -9 -17 -5 -56 -15 -86 -21 -71 -15
-120 -32 -120 -41 0 -4 -8 -10 -17 -13 -10 -3 -31 -18 -48 -32 -16 -14 -42
-32 -57 -40 -16 -8 -28 -18 -28 -22 0 -4 -46 -14 -102 -21 -67 -9 -108 -19
-120 -31 -10 -9 -39 -27 -65 -39 -27 -12 -56 -26 -65 -32 -23 -12 -88 -12 -88
1 0 5 -18 15 -40 21 -46 14 -57 10 -170 -63 -36 -23 -78 -49 -95 -57 -16 -9
-51 -31 -77 -49 -26 -17 -49 -32 -53 -32 -3 0 -21 -11 -38 -24 -18 -13 -48
-31 -67 -40 -19 -9 -48 -25 -65 -36 -16 -11 -38 -23 -47 -26 -10 -4 -18 -10
-18 -15 0 -5 -7 -9 -15 -9 -8 0 -15 -4 -15 -9 0 -5 -12 -15 -28 -23 -70 -35
-169 -108 -147 -108 6 0 59 25 100 47 11 6 70 34 130 63 61 28 119 56 130 62
11 6 47 25 80 41 33 16 119 58 192 94 122 60 136 65 178 59 24 -4 51 -14 59
-22 8 -8 21 -14 28 -14 7 0 23 -8 36 -18 l23 -17 -27 -33 c-15 -17 -32 -32
-38 -32 -6 0 -17 -10 -25 -22 -8 -13 -21 -33 -29 -45 -18 -28 -5 -29 28 -2 29
23 149 103 198 130 65 37 76 17 47 -91 -8 -30 -13 -55 -11 -57 2 -2 18 7 37
19 19 13 84 48 144 78 61 30 112 58 115 61 3 3 22 12 43 20 20 7 37 16 37 20
0 8 -40 -2 -158 -39 -65 -20 -85 -23 -92 -13 -12 20 -20 123 -12 161 8 34 9
35 67 42 97 10 199 36 211 53 6 8 15 15 20 15 5 0 21 19 36 43 57 89 71 100
108 92 20 -4 55 -28 87 -58 29 -27 55 -48 56 -46 2 2 18 28 36 58 48 79 38 73
181 111 25 7 57 16 72 20 66 20 316 -112 352 -186 13 -25 14 -46 6 -115 -6
-46 -10 -85 -10 -86 0 -2 -7 -3 -15 -3 -9 0 -18 12 -22 30 -3 17 -10 33 -15
36 -6 4 -36 -20 -67 -53 -31 -33 -72 -67 -91 -76 -19 -9 -75 -34 -125 -56
-102 -46 -88 -52 43 -21 99 24 126 25 141 6 22 -27 -2 -68 -95 -164 -52 -52
-94 -98 -94 -103 0 -12 65 6 147 43 51 22 67 44 83 118 7 30 22 74 34 97 l21
42 50 -24 c153 -71 171 -76 181 -50 4 8 12 15 19 15 7 0 15 7 18 15 4 8 24 26
47 40 l41 26 37 -29 c71 -56 172 -122 188 -122 11 0 14 6 8 22 -6 21 -67 133
-137 256 -21 35 -37 71 -37 79 0 25 59 140 75 147 8 3 64 -20 125 -50 61 -30
121 -54 133 -52 20 3 19 5 -16 44 -20 23 -37 49 -37 58 0 9 -4 16 -10 16 -5 0
-10 4 -10 9 0 5 -12 22 -27 38 -32 34 -153 224 -153 240 0 17 76 32 118 23
115 -25 136 -27 169 -18 49 13 131 68 202 134 l60 56 106 10 c58 6 108 8 111
5 4 -3 -3 -19 -15 -36 -32 -44 -61 -112 -61 -143 0 -21 8 -31 33 -43 47 -23
83 -55 70 -63 -20 -13 -26 -52 -9 -58 12 -5 16 -20 16 -60 0 -30 -4 -54 -8
-54 -4 0 -13 -15 -20 -32 -6 -18 -28 -58 -48 -88 -55 -82 -66 -120 -71 -265
l-5 -130 24 35 c13 19 41 65 62 103 20 37 40 67 44 67 18 0 152 -141 152 -160
0 -11 5 -20 10 -20 6 0 10 -28 10 -65 0 -53 3 -63 15 -59 8 4 15 11 15 18 0 6
8 16 18 23 21 13 46 88 40 124 -1 13 -12 28 -23 34 -27 14 -135 121 -135 134
0 6 -4 11 -9 11 -5 0 -20 20 -32 45 -12 25 -26 45 -31 45 -17 0 -7 34 17 56
14 13 25 28 25 34 0 5 7 10 15 10 8 0 15 4 15 9 0 5 34 43 75 85 41 42 75 80
75 85 0 5 -25 0 -57 -10 -96 -32 -93 -35 -93 86 0 63 -4 105 -10 105 -20 0 -9
36 17 55 15 11 44 37 65 58 21 20 42 37 47 37 5 0 22 15 38 33 15 17 41 40 57
50 29 19 29 19 111 -13 29 -11 157 -69 177 -81 10 -5 25 -9 33 -9 8 0 15 -4
15 -9 0 -5 9 -13 20 -16 11 -3 20 -12 20 -18 0 -13 -9 -20 -65 -57 -16 -11
-50 -34 -75 -50 l-45 -31 35 6 c19 3 45 11 57 17 12 6 29 8 37 5 21 -8 21 -66
1 -93 -8 -10 -15 -27 -15 -37 0 -20 30 -80 43 -85 4 -2 7 -8 7 -14 0 -6 7 -16
16 -22 15 -12 10 -46 -7 -46 -5 0 -9 -5 -9 -11 0 -6 -18 -27 -40 -46 -47 -41
-55 -70 -15 -49 14 7 33 22 43 33 14 16 76 53 89 53 1 0 3 -16 3 -35 0 -19 -4
-35 -10 -35 -5 0 -10 -15 -10 -33 0 -18 -7 -43 -16 -55 -8 -12 -18 -47 -21
-77 -3 -30 -10 -55 -14 -55 -5 0 -9 -18 -9 -40 0 -22 -4 -40 -10 -40 -5 0 -10
-16 -10 -36 0 -19 -7 -42 -15 -50 -8 -9 -15 -22 -15 -30 0 -31 35 -10 108 65
100 103 102 106 102 136 0 14 4 25 10 25 5 0 12 23 16 50 8 58 18 69 43 46 10
-9 22 -16 28 -16 6 0 28 -8 50 -19 62 -30 114 -48 178 -61 33 -6 78 -16 100
-20 22 -5 63 -11 90 -14 l50 -6 -55 26 c-30 14 -62 30 -70 35 -8 5 -47 25 -85
44 -84 41 -151 94 -121 95 10 0 35 -4 55 -10 20 -5 65 -17 101 -26 60 -15 155
-41 240 -65 48 -14 58 -16 195 -34 66 -9 150 -20 188 -25 73 -11 154 -13 145
-5 -5 6 -76 26 -173 50 -33 9 -73 20 -90 25 -16 5 -52 12 -79 16 -28 4 -73 15
-100 25 l-51 18 115 -6 c63 -3 112 -3 109 1 -8 9 -128 23 -302 36 -77 6 -158
18 -180 26 -23 8 -74 25 -112 38 -87 28 -205 92 -229 123 l-17 23 38 -4 c21
-2 63 -11 93 -19 30 -8 74 -18 98 -22 36 -6 41 -5 36 9 -4 9 -18 23 -33 30
-28 15 -59 40 -102 81 -22 21 -42 27 -115 36 -89 9 -129 18 -122 24 2 2 39 11
83 20 127 26 195 52 195 75 0 8 -117 90 -129 90 -3 0 -19 12 -36 28 -16 15
-42 33 -57 39 -16 7 -28 17 -28 23 0 5 -7 10 -15 10 -8 0 -15 3 -15 8 0 4 -17
18 -38 32 -20 14 -39 28 -42 31 -3 3 -27 19 -55 35 -45 26 -48 29 -25 33 14 1
47 -2 75 -8 65 -14 120 -21 233 -31 51 -4 98 -13 105 -18 12 -10 112 -45 207
-72 25 -7 64 -21 87 -31 24 -11 47 -19 53 -19 8 0 40 -16 135 -70 116 -66 129
-81 53 -62 -24 6 -59 14 -78 17 -36 7 -172 51 -202 67 -22 11 -25 -13 -5 -34
6 -7 21 -29 31 -48 21 -38 79 -96 111 -111 11 -5 29 -15 40 -21 94 -61 285
-162 285 -152 0 4 -25 34 -56 66 -66 69 -63 84 12 68 27 -5 74 -12 105 -15 56
-6 57 -7 62 -41 3 -20 18 -51 32 -69 14 -19 25 -41 25 -49 0 -9 5 -16 10 -16
6 0 10 -6 10 -13 0 -6 14 -25 30 -40 17 -16 30 -32 30 -37 0 -4 15 -10 33 -13
37 -5 210 -50 277 -72 25 -8 79 -22 120 -31 41 -9 91 -27 112 -40 21 -13 40
-24 44 -24 3 0 19 -11 36 -25 45 -38 50 -30 15 24 -24 38 -43 54 -77 67 -25
10 -48 22 -51 26 -7 11 -151 38 -201 38 -32 0 -54 10 -104 45 -34 25 -73 50
-86 55 -44 19 43 -1 117 -27 118 -41 207 -63 280 -69 67 -5 113 -19 126 -38 8
-10 89 -47 89 -40 0 12 -65 74 -77 74 -7 0 -13 3 -13 8 0 9 -138 75 -192 92
-24 7 -38 18 -38 28 0 24 106 89 168 103 47 10 80 -7 197 -101 55 -45 116 -89
135 -98 19 -10 46 -27 60 -40 14 -12 33 -25 43 -28 9 -3 17 -9 17 -14 0 -5 17
-14 38 -20 51 -17 336 -156 397 -195 72 -46 112 -56 55 -14 -25 18 -47 36 -50
39 -18 19 -84 61 -135 85 -33 16 -71 37 -84 47 -28 22 -108 58 -126 58 -26 0
-95 47 -95 64 0 9 109 7 169 -4 132 -23 161 -27 161 -20 0 4 -12 10 -27 14
-16 3 -68 17 -118 31 -49 13 -120 32 -157 41 -38 10 -68 21 -68 26 0 5 14 14
30 19 17 6 30 18 30 26 0 12 8 13 40 8 49 -8 53 8 8 25 -96 35 -119 53 -80 61
9 3 89 2 177 -2 131 -5 166 -9 195 -25 l35 -19 -38 -3 c-45 -4 -40 -22 6 -22
37 0 133 -24 150 -38 7 -5 40 -17 74 -27 60 -18 62 -20 65 -54 l3 -36 100 0
c96 -1 217 -24 271 -53 10 -5 42 -13 69 -17 28 -4 57 -11 65 -15 8 -4 35 -10
60 -14 43 -6 44 -6 18 8 -89 47 -201 81 -353 106 -102 17 -123 30 -37 23 65
-5 76 -3 102 16 36 26 63 27 92 2 13 -11 35 -30 51 -43 15 -13 52 -36 81 -51
51 -26 63 -27 227 -32 100 -3 161 -1 143 4 -17 4 -35 10 -40 14 -11 6 -55 13
-181 27 -97 11 -164 40 -225 97 -26 25 -28 25 -231 27 l-206 3 -33 27 c-18 14
-38 31 -45 36 -7 6 -20 10 -30 10 -29 1 -146 41 -205 71 -10 5 -67 9 -127 9
-97 0 -121 4 -213 34 -135 44 -142 45 -358 47 l-185 2 -85 -42 c-110 -54 -126
-53 -331 7 -71 21 -90 31 -103 54 -10 15 -21 28 -27 28 -5 0 -9 9 -9 20 0 11
-4 20 -10 20 -5 0 -10 7 -10 16 0 20 -63 84 -82 84 -8 0 -23 6 -34 14 -20 14
-165 66 -185 66 -6 0 -52 19 -102 43 -103 48 -145 61 -267 82 -47 8 -94 16
-105 19 -11 2 -49 10 -85 16 -36 6 -92 18 -125 25 -33 8 -88 19 -122 24 -35 6
-89 15 -120 21 -32 5 -92 14 -133 21 -41 6 -97 15 -123 20 -97 18 -155 11
-260 -35z"/>
<path d="M1648 4880 c-52 -15 -98 -52 -125 -97 -22 -37 -28 -62 -31 -130 -7
-134 37 -220 137 -264 39 -17 68 -19 287 -19 142 0 254 4 270 10 42 16 86 58
121 114 30 47 33 58 33 136 0 73 -4 91 -25 125 -14 22 -27 47 -30 55 -7 17
-53 48 -100 66 -35 14 -493 17 -537 4z m514 -42 c22 -6 42 -18 45 -25 3 -7 10
-13 17 -13 48 -2 86 -176 55 -257 -14 -38 -67 -92 -106 -109 -39 -17 -456 -20
-513 -4 -40 11 -104 71 -119 113 -6 16 -11 55 -11 87 0 32 5 71 11 87 13 37
76 102 114 119 40 18 449 20 507 2z"/>
<path d="M1786 4794 c-24 -24 -28 -54 -25 -183 4 -111 6 -121 28 -140 21 -18
37 -21 121 -21 84 0 99 3 115 20 47 52 47 292 -1 327 -27 20 -218 18 -238 -3z
m220 -36 c14 -22 9 -225 -5 -242 -10 -12 -33 -16 -94 -16 -103 0 -106 4 -107
134 0 131 4 136 116 136 53 0 85 -4 90 -12z"/>
<path d="M2387 4884 c-4 -4 -7 -84 -7 -177 0 -155 2 -174 22 -214 28 -56 76
-99 125 -112 22 -6 139 -11 269 -11 l232 0 52 28 c59 31 107 89 120 148 5 21
10 103 10 180 0 110 -3 144 -14 153 -9 7 -41 11 -83 9 l-68 -3 -5 -165 c-6
-165 -13 -201 -46 -214 -30 -12 -209 -7 -225 7 -41 33 -44 48 -49 211 l-5 161
-161 3 c-88 1 -163 -1 -167 -4z m293 -166 c0 -152 10 -200 50 -240 28 -28 30
-28 150 -28 67 0 130 5 141 11 11 5 31 35 44 66 23 50 25 69 25 190 l0 134 38
-3 37 -3 -1 -120 c0 -109 -16 -212 -33 -225 -4 -3 -10 -12 -13 -21 -4 -9 -23
-24 -45 -35 -33 -17 -66 -19 -269 -22 -208 -3 -235 -1 -280 16 -39 16 -53 28
-71 62 -21 39 -23 56 -23 197 l0 153 125 0 125 0 0 -132z"/>
<path d="M3262 4878 c-14 -14 -17 -474 -4 -496 7 -9 45 -12 158 -10 l149 3 3
123 c1 67 6 122 10 122 7 0 118 -116 191 -200 l40 -45 165 -3 166 -3 0 26 c0
20 -22 51 -85 118 l-86 90 29 13 c49 20 77 70 77 136 0 67 -24 107 -76 125
-48 17 -720 18 -737 1z m725 -48 c42 -25 55 -52 47 -95 -7 -40 -63 -95 -97
-96 -12 0 -31 -4 -42 -8 -17 -7 -7 -20 79 -109 l99 -102 -114 0 -114 0 -112
112 c-62 62 -113 121 -113 130 0 16 10 18 70 18 79 0 110 19 110 67 0 54 -21
63 -152 63 l-118 0 0 -195 0 -195 -120 0 -120 0 0 215 0 215 333 0 c311 0 334
-1 364 -20z m-238 -73 c19 -24 -9 -37 -80 -37 -37 0 -71 -4 -74 -10 -3 -5 -10
-10 -16 -10 -10 0 -13 53 -2 63 13 13 160 8 172 -6z"/>
<path d="M4483 4870 c-47 -29 -61 -63 -54 -137 4 -38 13 -69 25 -82 20 -22
154 -93 234 -123 29 -11 51 -22 48 -25 -3 -3 -65 -5 -138 -5 -155 1 -169 -4
-170 -66 0 -22 3 -45 6 -51 5 -8 104 -11 319 -11 292 0 314 1 344 20 61 37 82
128 45 199 -19 37 -20 37 -175 112 -59 29 -110 56 -113 61 -3 4 56 8 130 8
109 0 138 3 150 16 18 18 21 56 6 85 -10 18 -24 19 -318 19 -287 0 -309 -1
-339 -20z m622 -40 c0 -13 -34 -15 -233 -18 l-234 -2 159 -79 c87 -44 183 -90
213 -104 61 -26 110 -76 110 -110 -1 -92 -18 -97 -366 -97 -246 0 -284 2 -284
15 0 13 34 15 243 15 l242 0 -80 40 c-44 21 -145 71 -225 110 -80 39 -153 80
-162 91 -29 34 -24 95 11 130 l30 29 288 -2 c248 -3 288 -5 288 -18z"/>
<path d="M5204 4876 c-3 -8 -4 -95 -2 -193 3 -203 9 -221 86 -277 l44 -31 236
-3 c279 -4 321 2 380 56 57 53 72 113 73 288 1 76 -2 147 -6 157 -6 14 -20 17
-80 17 -55 0 -74 -4 -78 -15 -4 -8 -6 -74 -5 -148 1 -142 -11 -200 -42 -217
-10 -6 -64 -10 -119 -10 -88 0 -104 3 -121 20 -24 24 -21 6 -29 205 l-6 160
-163 3 c-135 2 -163 0 -168 -12z m288 -179 c3 -138 6 -156 27 -190 12 -21 31
-42 41 -47 10 -6 73 -10 139 -10 114 0 121 1 150 26 42 35 51 77 51 237 l0
137 40 0 40 0 0 -122 c-1 -198 -17 -243 -100 -285 -42 -22 -55 -23 -275 -23
-220 0 -233 1 -275 23 -79 40 -85 55 -88 243 l-4 164 125 0 125 0 4 -153z"/>
<path d="M6066 4874 c-3 -9 -6 -118 -6 -244 0 -126 3 -235 6 -244 8 -20 116
-23 132 -3 6 7 12 44 14 81 l3 68 100 -82 100 -82 66 4 c60 3 69 7 100 38 19
19 57 54 84 77 l50 42 5 -77 5 -77 150 0 150 0 3 258 2 257 -62 0 c-68 0 -106
-17 -163 -71 -47 -44 -256 -224 -265 -227 -4 -2 -81 65 -171 148 l-164 150
-66 0 c-52 0 -68 -4 -73 -16z m282 -184 c159 -148 200 -177 216 -151 4 5 85
77 181 160 154 133 178 151 210 151 l35 0 0 -215 0 -215 -115 0 -115 0 0 105
c0 58 -3 105 -6 105 -3 0 -57 -47 -120 -105 -109 -101 -115 -105 -158 -105
-41 0 -53 7 -130 70 -46 39 -89 70 -95 70 -5 0 -16 9 -25 21 -8 12 -26 27 -40
34 l-26 14 0 -105 0 -104 -30 0 -30 0 0 208 c0 115 3 212 7 215 3 4 20 7 37 7
26 -1 59 -27 204 -160z"/>
<path d="M7095 4877 c-3 -7 -4 -123 -3 -257 l3 -245 59 -3 c34 -2 64 2 70 8 6
6 13 42 16 81 l5 70 95 -81 95 -80 66 0 66 0 89 81 89 82 5 -79 5 -79 145 -3
c127 -2 146 -1 157 15 10 12 13 77 13 244 0 125 -3 234 -6 243 -5 12 -21 16
-70 16 -51 0 -70 -5 -100 -25 -21 -14 -44 -34 -51 -45 -8 -11 -20 -20 -26 -20
-7 0 -25 -13 -42 -30 -27 -26 -152 -133 -198 -169 -15 -12 -29 -2 -135 95
-233 216 -202 194 -277 194 -44 0 -67 -4 -70 -13z m113 -36 c9 -6 51 -42 92
-81 41 -38 94 -87 118 -108 24 -20 62 -56 85 -79 24 -24 50 -43 58 -43 9 0 88
63 177 140 88 77 165 140 169 140 5 0 14 9 21 20 9 15 23 20 52 20 l40 0 0
-215 0 -215 -115 0 -116 0 2 101 c1 55 -1 103 -5 106 -3 3 -44 -30 -92 -73
-149 -136 -145 -133 -192 -134 -40 0 -52 7 -150 88 -59 49 -119 96 -134 106
l-28 18 0 -106 0 -106 -25 0 -25 0 0 215 0 215 26 0 c14 0 33 -4 42 -9z"/>
<path d="M8127 4883 c-13 -12 -8 -488 5 -501 8 -8 58 -12 159 -12 125 0 148 2
153 16 3 9 6 118 6 244 0 126 -3 235 -6 244 -5 14 -29 16 -158 16 -84 0 -156
-3 -159 -7z m283 -248 l0 -215 -120 0 -120 0 0 215 0 215 120 0 120 0 0 -215z"/>
<path d="M8480 4836 c0 -65 1 -66 121 -66 l89 0 0 -177 c0 -98 3 -188 6 -200
6 -23 9 -23 165 -23 l159 0 0 200 0 200 104 0 c119 0 129 5 124 72 l-3 43
-382 3 -383 2 0 -54z m720 -6 c0 -19 -7 -20 -110 -20 -81 0 -110 -3 -111 -12
0 -7 -1 -89 -1 -182 0 -93 -2 -175 -5 -182 -4 -11 -32 -14 -119 -14 l-114 0 0
195 0 195 -110 0 c-103 0 -110 1 -110 20 0 20 7 20 340 20 333 0 340 0 340
-20z"/>
<path d="M4945 4119 c-2 -8 -6 -41 -7 -74 -3 -53 -6 -60 -26 -65 -33 -7 -32
-24 1 -28 25 -3 27 -6 27 -52 0 -58 15 -103 33 -97 13 5 14 16 3 99 l-7 57 35
15 c46 19 50 48 6 40 l-30 -6 0 50 c0 32 -5 54 -15 62 -12 10 -16 10 -20 -1z"/>
<path d="M6031 4111 c-6 -11 -9 -36 -7 -55 6 -50 -3 -74 -28 -78 -27 -4 -27
-22 0 -26 18 -3 23 -14 32 -69 12 -70 25 -94 42 -77 7 7 7 28 0 63 -15 82 -14
89 25 105 45 19 48 48 5 40 l-30 -6 0 50 c0 58 -21 87 -39 53z"/>
<path d="M4437 4103 c-6 -10 -1 -302 5 -309 3 -2 13 -1 22 2 14 5 16 14 11 42
l-6 35 28 -22 c57 -44 72 -53 83 -46 19 12 10 30 -25 53 -42 27 -43 33 -10 76
14 18 25 36 25 39 0 13 -50 7 -50 -5 0 -7 -11 -20 -24 -30 l-23 -16 1 91 c1
78 -2 92 -16 95 -9 2 -18 -1 -21 -5z"/>
<path d="M4252 4053 c-6 -21 -14 -55 -17 -76 -5 -32 -10 -38 -28 -35 -19 3
-22 9 -22 53 0 43 -3 50 -21 53 -19 3 -21 -5 -32 -113 -13 -120 -11 -135 14
-135 10 0 14 12 14 39 0 22 5 43 10 46 6 4 8 10 5 15 -8 13 12 22 34 15 15 -4
18 -15 17 -68 -1 -56 1 -62 20 -65 20 -3 21 3 29 105 12 151 12 196 -1 200 -6
2 -16 -13 -22 -34z"/>
<path d="M4337 4083 c-9 -9 12 -33 29 -33 8 0 14 9 14 20 0 19 -28 28 -43 13z"/>
<path d="M5417 3969 c-24 -31 -25 -31 -32 -10 -3 12 -15 21 -26 21 -18 0 -20
-6 -17 -82 3 -74 5 -83 23 -86 16 -2 23 8 39 57 25 77 43 85 52 23 8 -57 21
-92 32 -92 5 0 19 25 32 55 34 80 46 86 52 25 6 -60 24 -88 45 -67 11 11 12
22 3 58 -10 38 -14 62 -19 102 -1 5 -11 7 -23 5 -14 -2 -35 -21 -54 -50 l-32
-47 -6 43 c-4 24 -15 51 -25 60 -18 16 -20 15 -44 -15z"/>
<path d="M6386 3993 c-3 -4 -6 -20 -6 -37 0 -34 -30 -98 -48 -104 -11 -3 -26
51 -22 79 5 34 -1 49 -20 49 -18 0 -20 -7 -20 -61 0 -88 45 -146 80 -104 19
22 30 18 30 -11 0 -33 -32 -87 -67 -112 -33 -24 -23 -45 15 -31 41 16 61 38
74 83 15 57 17 228 2 243 -6 7 -14 9 -18 6z"/>
<path d="M6650 3918 c1 -88 12 -118 46 -118 11 0 30 16 43 36 22 31 26 34 32
17 12 -32 34 -46 48 -29 8 10 9 16 1 21 -5 3 -10 35 -10 69 0 42 -5 67 -14 75
-17 14 -29 1 -46 -54 -15 -46 -38 -85 -51 -85 -5 0 -9 34 -9 75 0 68 -2 75
-20 75 -18 0 -20 -7 -20 -82z"/>
<path d="M4330 3921 c0 -33 5 -63 10 -66 6 -3 10 -15 10 -26 0 -13 7 -19 21
-19 19 0 21 4 15 31 -3 17 -6 56 -6 85 0 51 -1 54 -25 54 -24 0 -25 -3 -25
-59z"/>
<path d="M4626 3958 c-21 -30 -21 -121 -1 -138 19 -15 92 -17 107 -2 6 6 8 18
4 28 -5 13 -9 15 -18 6 -15 -15 -51 -15 -66 0 -20 20 -14 38 13 38 27 0 65 31
65 53 0 41 -78 52 -104 15z m67 -4 c12 -13 -6 -34 -29 -34 -22 0 -23 3 -14 20
10 19 31 26 43 14z"/>
<path d="M5055 3956 c-9 -13 -18 -40 -22 -59 -4 -29 -1 -40 20 -61 36 -36 60
-33 101 15 49 57 43 96 -19 119 -41 16 -63 12 -80 -14z m83 -38 c5 -39 -14
-68 -43 -68 -22 0 -25 5 -25 34 0 61 61 92 68 34z"/>
<path d="M5676 3958 c-9 -13 -16 -43 -16 -69 0 -56 25 -83 76 -83 40 0 75 27
57 45 -8 8 -13 8 -17 0 -9 -15 -49 -14 -64 1 -19 19 -14 38 11 38 13 0 34 11
47 25 33 35 18 59 -38 63 -32 2 -43 -1 -56 -20z m67 -4 c11 -11 -5 -34 -24
-34 -17 0 -18 3 -9 20 11 20 22 25 33 14z"/>
<path d="M5846 3958 c-9 -13 -16 -43 -16 -69 0 -56 25 -83 76 -83 40 0 75 27
57 45 -8 8 -13 8 -17 0 -9 -15 -49 -14 -64 1 -20 20 -14 38 13 38 27 0 65 31
65 53 0 41 -88 53 -114 15z m68 -6 c7 -11 -6 -27 -26 -35 -21 -7 -22 -3 -8 24
11 20 25 25 34 11z"/>
<path d="M6485 3956 c-9 -13 -19 -40 -22 -59 -5 -30 -1 -40 22 -61 37 -35 57
-33 94 9 47 54 42 104 -12 124 -43 17 -65 13 -82 -13z m83 -38 c5 -39 -14 -68
-43 -68 -21 0 -25 5 -25 31 0 44 17 71 43 67 15 -2 23 -11 25 -30z"/>
</g>
</svg>
